<?xml version="1.0" encoding="UTF-8"?>
<svg width="12px" height="16px" viewBox="0 0 12 16" version="1.1" xmlns="http://www.w3.org/2000/svg" xmlns:xlink="http://www.w3.org/1999/xlink">
    <!-- Generator: Sketch 55.2 (78181) - https://sketchapp.com -->
    <title>m</title>
    <desc>Created with Sketch.</desc>
    <g id="Symbols" stroke="none" stroke-width="1" fill="none" fill-rule="evenodd">
        <g id="PED/Components/Course-Card/Active" transform="translate(-30.000000, -228.000000)" fill="#FF3F32" fill-rule="nonzero">
            <g id="Group-2" transform="translate(30.000000, 223.000000)">
                <path d="M5.38334898,20.6771811 C0.842801946,14.0947383 0,13.4191722 0,11.0000191 C0,7.68630627 2.68627289,5.00003338 5.99998569,5.00003338 C9.3136985,5.00003338 11.9999714,7.68630627 11.9999714,11.0000191 C11.9999714,13.4191722 11.1571694,14.0947383 6.61662241,20.6771811 C6.31864949,21.1076305 5.68129139,21.1076 5.38334898,20.6771811 Z M5.99999166,13.5000131 C7.38068919,13.5000131 8.49997973,12.3807226 8.49997973,11.000025 C8.49997973,9.61931558 7.38068919,8.50002503 5.99999166,8.50002503 C4.6192822,8.50002503 3.49999166,9.61931558 3.49999166,11.000025 C3.49999166,12.3807226 4.6192822,13.5000131 5.99999166,13.5000131 Z" id="m"></path>
            </g>
        </g>
    </g>
</svg>
